<svg xmlns="http://www.w3.org/2000/svg" viewBox="0 0 450 380.8" xmlns:xlink="http://www.w3.org/1999/xlink"><defs><path class="cls-1" d="M155 353c-2 0-2 0-2 2v14c0 4 1 8 6 8a6 6 0 0 0 2-1l2-1v2a10 10 0 0 1-7 3c-7 0-8-3-8-8v-17c0-2 0-2-2-2h-2a1 1 0 0 1 0-2 15 15 0 0 0 5-2 19 19 0 0 0 3-4h1v3c0 2 0 2 2 2h8a2 2 0 0 1 0 3ZM182 339c5-4 11-6 19-6a52 52 0 0 1 12 2 5 5 0 0 0 2 0v10a1 1 0 0 1-1 0c-1-5-4-10-14-10-11 0-20 7-20 21s9 22 21 22c8 0 12-6 14-10a1 1 0 0 1 2 0l-4 10a13 13 0 0 0-2 0 40 40 0 0 1-11 2c-6 0-12-1-17-4a22 22 0 0 1-10-19 23 23 0 0 1 9-18ZM256 364c0 9-6 16-16 16-8 0-15-6-15-15a16 16 0 0 1 16-16c8 0 15 6 15 15Zm-16-13c-5 0-8 5-8 13 0 7 3 14 9 14s9-7 9-13-3-14-10-14ZM293 368c0 6 0 9 2 9a12 12 0 0 0 3-1v2a55 55 0 0 0-9 3l-1-1v-1a8 8 0 0 0 0-2h-1c-3 2-5 3-9 3-8 0-14-6-14-14 0-10 8-17 18-17a15 15 0 0 1 5 1l1-1v-12c0-4 0-5-3-6a1 1 0 0 1 0-2 53 53 0 0 0 8-3 1 1 0 0 1 0 1v9Zm-5-11a4 4 0 0 0-1-3 8 8 0 0 0-6-3c-7 0-11 6-11 12 0 7 4 14 11 14a9 9 0 0 0 6-3l1-2ZM312 360c-2 0-2 0-2 2 0 8 4 14 12 14 3 0 5-1 7-4a1 1 0 0 1 1 1c-2 5-7 7-11 7a13 13 0 0 1-11-5 16 16 0 0 1-3-9c0-10 6-17 15-17 6 0 10 4 10 9a5 5 0 0 1 0 2h-4Zm4-2 8-1 1-1c0-2-2-5-6-5s-8 4-8 7ZM343 358c0-3 0-3-2-5a1 1 0 0 1 0-2 59 59 0 0 0 7-3h1v5c3-2 5-4 8-4a3 3 0 0 1 3 3 3 3 0 0 1-3 3 3 3 0 0 1-1 0 6 6 0 0 0-4-1 3 3 0 0 0-2 1l-1 6v10c0 5 0 6 3 6h2a1 1 0 0 1 0 2h-15a1 1 0 0 1 0-2h1c3 0 3-1 3-6ZM138 377h-2c-3 0-4-1-6-8l-10-29-4-10a1 1 0 0 0-1-1 8 8 0 0 1-4 3c1 1 0 2-1 5l-7 20-7 17-4 3h-3a1 1 0 0 0 0 2h15a1 1 0 0 0 0-2h-2l-2-1a29 29 0 0 1 1-6l3-8c0-2 1-2 3-2h10l-1-3h-8c-2 0-2 0-2-2l5-13 2-4a49 49 0 0 1 2 5l3 10 3 8v1l3 10a15 15 0 0 1 1 4l-2 1h-2a1 1 0 0 0 0 2h17a1 1 0 0 0 0-2ZM349 181l12-7c-4-2-11-1-17-1l-8-2c-2 0-2 2-2 3v17a3 3 0 0 0 0 2l5-5-1-11 1-1a17 17 0 0 0 10 6M337 199l4 1a8 8 0 0 1 2 3 9 9 0 0 1 1 3 3 3 0 0 0 4 2c1 0 4-10 1-11-2-1-3 1-4 1l-1-3a2 2 0 0 0-1-1 10 10 0 0 0-1 0l-5 5M387 243a92 92 0 0 0 2 18 1 1 0 0 1 0 2l-16 13-4 2-1 3a8 8 0 0 1-2 7 3 3 0 0 0-1 0c-1 2 0 7 1 8s5-3 6-5l-1-4a2 2 0 0 1 2-3 2 2 0 0 0 1-1l1-3a2 2 0 0 1-1-1l8-5c4-3 13-6 16-10v-3c-1-1-10-13-11-18" id="reuse-0"/><path class="cls-1" d="M450 235s-7-7-18-2l-8-6c-1 0 1-5-4-10s-18-11-24-22c-3-7 2-21 1-32l-3-6-4-17a6 6 0 0 1-3 4c1-2 2-4 1-7a12 12 0 0 0-1-1 7 7 0 0 1-2 6c1-1 2-6 1-7l-1-1-1-1a12 12 0 0 1 0 7 21 21 0 0 0-1-8 20 20 0 0 0-16-1 10 10 0 0 0-5 6l-27-5v1l26 10-1 11-2 5c0 1 1 3 4 1l2-1c2 0 1 3 2 3 3 0 1-4 2-5s1-7 4-7c3 1 3 2 3 4a17 17 0 0 1-1 8l-13 14-15 8c-13 10-20 21-19 24l4 8c0 2-1 8 1 8 2 1 7-7 6-9l-3-1a3 3 0 0 1-1-1l1-3c-1-3-3-2-3-3a12 12 0 0 1 0-2 4 4 0 0 1 0-3c3-4 10-11 16-13 0 0 10 10 16 11 0 0 7 19 20 20-2 11 9 38 19 43v3l-18 19-1 5c0 2-2 9-1 10 2 1 9-4 7-7-1 0-3-1-2-3 0-1 3 0 4-2l1-4 16-17a2 2 0 0 0 1-1 19 19 0 0 0 0-3c0-1-9-12-1-17 2-2 11-8 14-15a27 27 0 0 1 5 5c-4 3-7 9-8 11 0 0 4-4 8-5 0 0-12 16-11 23a26 26 0 0 1 8-11s-11 22 3 37c0 0-5-15-2-20 0 0 6 14 17 13 0 0-9-7-11-19a16 16 0 0 0 8 6s-9-11-3-20c0 7 4 11 6 12 0 0-3-9-1-14 2 1 3 4 7 4a32 32 0 0 1-5-17c0-1 3-2 6-1Z" id="reuse-1"/><path class="cls-1" d="M367 129a23 23 0 0 1 7-1 21 21 0 0 1 10 2l1 1 1 1 1 1h1v1h1a14 14 0 0 1 1 2v1l4 11c1-6 3-13 0-20-1-4-9-16-27-13-12 1-19 13-19 13l12 5 7-4ZM101 181l-12-7c4-2 11-1 17-1l8-2c2 0 2 2 2 3v17a3 3 0 0 1 0 2l-5-5 1-11-1-1a16 16 0 0 1-10 6M113 199l-4 1a8 8 0 0 0-2 3 9 9 0 0 0-1 3 3 3 0 0 1-4 2c-1 0-4-10-1-11 2-1 3 1 4 1l1-3a2 2 0 0 1 1-1 10 10 0 0 1 1 0l5 5M63 243a92 92 0 0 1-2 18 1 1 0 0 0 0 2l16 13 4 2 1 3a8 8 0 0 0 2 7 3 3 0 0 1 1 0c1 2 0 7-1 8s-5-3-6-5c-1-1 0-3 1-4a2 2 0 0 0-2-3 2 2 0 0 1-1-1v-3a2 2 0 0 0 0-1l-8-5c-4-3-13-6-16-10v-3c1-1 10-13 11-18" id="reuse-2"/><path class="cls-1" d="M0 235s7-7 18-2l8-6c1 0-1-5 4-10s18-11 24-22c3-7-2-21-1-32l3-6 4-17a6 6 0 0 0 3 4c-1-2-2-4-1-7a12 12 0 0 1 1-1 7 7 0 0 0 2 6c-1-1-2-6-1-7a13 13 0 0 1 1-1l1-1a12 12 0 0 0 0 7 21 21 0 0 1 1-8 20 20 0 0 1 16-1 10 10 0 0 1 5 6l27-5v1l-26 10 1 11 2 5c0 1-1 4-4 1l-2-1c-2 0-1 3-2 3-3 0-1-4-2-5s-1-7-4-7c-3 1-3 2-3 4a18 18 0 0 0 1 8l13 14 15 8c13 10 20 21 19 24l-4 9c0 1 1 7-1 8-2 0-7-8-6-10l3-1a3 3 0 0 0 1-1l-1-3c1-3 3-2 3-3a12 12 0 0 0 0-2 4 4 0 0 0 0-3c-3-4-10-11-16-13 0 0-10 10-16 11 0 0-7 19-20 20 2 11-9 38-19 43v3l18 19 1 5c0 2 2 9 1 10-2 1-9-4-7-7 1 0 3-1 2-3 0-1-4 0-4-2l-1-4-16-17a2 2 0 0 1-2-1 19 19 0 0 1 1-3c0-1 9-12 1-17-2-2-12-8-14-15a26 26 0 0 0-5 5c4 3 7 9 8 11 0 0-4-4-8-5 0 0 12 16 11 23a26 26 0 0 0-8-11s11 22-3 37c0 0 5-15 2-20 0 0-6 14-17 13 0 0 9-7 11-19a16 16 0 0 1-8 5c0 1 9-10 3-19 0 7-4 11-6 12 0 0 3-9 1-14-2 1-3 4-7 4a32 32 0 0 0 5-17c0-1-3-2-6-1Z" id="reuse-3"/><path class="cls-1" d="M83 129a23 23 0 0 0-7-1 21 21 0 0 0-10 2h-1v1l-1 1-1 1h-1v1h-1a13 13 0 0 0-1 2v1l-4 11c-1-6-3-13 0-20 1-4 9-16 27-13 12 1 19 13 19 13l-12 5-7-4ZM221 209a1 1 0 0 0 2-1v-7a2 2 0 0 0-2-3h-10l-1 2ZM206 200a5 5 0 0 0-3-2h-9v2l17 8v-1ZM223 181a2 2 0 0 0-2-3h-17a2 2 0 0 0-2 2s3 10 5 15 1 0 2 0h12a2 2 0 0 0 2-2ZM223 106a1 1 0 0 0-2-1l-10 8c-1 1-1 2 1 2h9a2 2 0 0 0 2-3ZM172 194a8 8 0 0 0 2 1 7 7 0 0 1 2 0h5c1 0 2-1 1-2l-8-13a4 4 0 0 0-4-2h-10c-2 0-2 1-1 2ZM223 120a2 2 0 0 0-2-2h-11l-3 1-5 14a2 2 0 0 0 2 2h17a2 2 0 0 0 2-3ZM223 140a2 2 0 0 0-2-2h-18a3 3 0 0 0-3 2l-1 13a2 2 0 0 0 2 2h20a2 2 0 0 0 2-2ZM223 160a2 2 0 0 0-2-2h-20a2 2 0 0 0-2 2l1 13a3 3 0 0 0 3 2h18a2 2 0 0 0 2-2ZM188 200a7 7 0 0 0-4-2h-3v1l14 6c1 1 1 0 0 0ZM201 195a1 1 0 0 0 1-2l-4-13a3 3 0 0 0-2-2h-17c-2 0-2 1-1 2l9 13a5 5 0 0 0 3 2ZM197 140a2 2 0 0 0-2-2h-17a3 3 0 0 0-3 2l-3 13a2 2 0 0 0 2 2h19a2 2 0 0 0 3-2ZM191 118a6 6 0 0 0-4 2l-9 13c-1 1 0 2 1 2h17a3 3 0 0 0 2-2l5-13a1 1 0 0 0-2-2ZM155 173a3 3 0 0 0 3 2h11a2 2 0 0 0 2-2l-2-13a2 2 0 0 0-3-2h-13a2 2 0 0 0-2 2ZM175 173a3 3 0 0 0 2 2h18a2 2 0 0 0 2-2l-1-13a2 2 0 0 0-3-2h-19a2 2 0 0 0-2 2ZM151 153a2 2 0 0 0 2 2h13a3 3 0 0 0 3-2l2-13a2 2 0 0 0-2-2h-11a4 4 0 0 0-3 2ZM211 107v-1l-16 7v2h8a5 5 0 0 0 4-2ZM159 133c-1 1 0 2 1 2h11a4 4 0 0 0 3-2l8-13v-2h-5a7 7 0 0 0-4 2ZM185 115a7 7 0 0 0 4-2l6-4v-1l-13 6v1ZM276 155a2 2 0 0 0 2-2l-3-13a3 3 0 0 0-3-2h-17a2 2 0 0 0-2 2l1 13a2 2 0 0 0 3 2ZM227 193a2 2 0 0 0 2 2h14l5-14a2 2 0 0 0-2-3h-17a2 2 0 0 0-2 3ZM227 173a2 2 0 0 0 2 2h18a3 3 0 0 0 3-2l1-13a2 2 0 0 0-2-2h-20a2 2 0 0 0-2 2ZM227 153a2 2 0 0 0 2 2h20a2 2 0 0 0 2-2l-1-13a3 3 0 0 0-3-2h-18a2 2 0 0 0-2 2ZM272 180c1-1 1-2-1-2h-17a3 3 0 0 0-2 2l-4 13a1 1 0 0 0 1 2h11a5 5 0 0 0 3-2ZM266 198a7 7 0 0 0-4 2l-7 5c-1 0-1 1 0 0l14-6v-1ZM227 132a2 2 0 0 0 2 3h17a2 2 0 0 0 2-2s-3-9-5-14l-3-1h-11a2 2 0 0 0-2 2ZM299 160a2 2 0 0 0-2-2h-13a3 3 0 0 0-3 2l-2 13a2 2 0 0 0 2 2h14v-2ZM247 198a5 5 0 0 0-3 2l-5 7v1l17-8v-2ZM240 200l-1-2h-10a2 2 0 0 0-2 3v7a1 1 0 0 0 2 1ZM297 155a2 2 0 0 0 2-2l-4-13a4 4 0 0 0-3-2h-11a2 2 0 0 0-2 2l2 13a3 3 0 0 0 3 2ZM263 120a6 6 0 0 0-4-2h-10a1 1 0 0 0-2 2l5 12a3 3 0 0 0 2 3h17c1 0 2-1 1-2ZM277 119a7 7 0 0 0-4-1h-5l-1 2 9 13a4 4 0 0 0 3 2h11c1 0 2-1 1-2ZM229 105a1 1 0 0 0-2 1v6a2 2 0 0 0 2 3h9c2 0 2-1 1-2ZM291 180v-2h-11a4 4 0 0 0-4 2l-8 13c-1 1 0 2 1 2h5a6 6 0 0 1 2 0 7 7 0 0 0 2-1ZM278 160a2 2 0 0 0-2-2h-19a2 2 0 0 0-3 2l-1 13a2 2 0 0 0 2 2h18a3 3 0 0 0 2-2ZM243 113a5 5 0 0 0 4 2h8v-2l-16-7v1ZM261 113a7 7 0 0 0 4 2h3v-1l-13-6v1ZM249 248a12 12 0 0 1-21-1l-1-1-11-21-2-5-3 5-13 29-3 5h6l1-3 12-24 9 17v1a17 17 0 0 0 32-2Z" id="reuse-4"/><path class="cls-1" d="M239 224a17 17 0 0 0-16 10l4 5a25 25 0 0 1 1-3 12 12 0 0 1 21-1h6a17 17 0 0 0-16-11Z" id="reuse-5"/><path class="cls-1" d="M224 317c-1-1-58-43-79-101-13-33-21-84-21-111v-1l1-1c11-5 100-35 100-35s89 30 100 35l1 1v1c0 27-8 78-21 111-21 58-78 100-79 101l-1 1Zm1-244s-79 26-96 34h-1c1 26 9 75 21 108 19 51 66 90 76 97 10-7 57-46 76-97 12-33 20-82 21-108h-1c-17-8-96-34-96-34Z" id="reuse-6"/><path class="cls-1" d="M224 302s-52-38-72-91c-11-30-18-77-18-100v-2h1c9-5 90-32 90-32s81 27 90 32h1v2c0 24-7 70-18 100-20 53-71 91-72 91l-1 1Zm1-221-88 30v1c0 24 7 68 18 98a233 233 0 0 0 70 89l26-23c15-15 34-39 44-66 11-30 18-75 18-98v-1l-88-30ZM234 54l6-37a63 63 0 0 1-7-6l-3 43Zm-9 0h2l4-46a46 46 0 0 1-6-8 46 46 0 0 1-6 8l4 46Zm17 0 8-31a62 62 0 0 1-7-4l-6 35Zm9 0 8-28a62 62 0 0 1-6-2l-8 30Zm-55 0-8-26a41 41 0 0 1-8-3l11 29Zm24 0-3-43a63 63 0 0 1-8 6l6 37Zm39 0 11-29a41 41 0 0 1-8 3l-8 26Zm-54 0-8-30a61 61 0 0 1-6 2l8 28Zm8 0-6-35a61 61 0 0 1-7 4l8 31Zm-18 15 30-7 30 7 4-13h-68ZM111 92l7 7 73-29-3-8Zm71-25 2 2a1 1 0 0 1-1 2 1 1 0 0 1-1-1v-3Zm-6 3 2 2a1 1 0 0 1 0 1 1 1 0 0 1-2 0 9 9 0 0 1 0-3Zm-6 2 2 2a1 1 0 0 1 0 2 1 1 0 0 1-2-1v-3Zm-6 2 3 2a1 1 0 0 1-1 2 1 1 0 0 1-2-1v-3Zm-6 2 3 2a1 1 0 0 1-1 2 1 1 0 0 1-2-1v-3Zm-5 3 2 2a1 1 0 0 1-1 2 1 1 0 0 1-2-1l1-3Zm-6 2 2 2a1 1 0 0 1-1 2 1 1 0 0 1-2-1l1-3Zm-6 2 2 2a1 1 0 0 1-1 2 1 1 0 0 1-2-1l1-3Zm-6 3 2 2a1 1 0 0 1-1 1 1 1 0 0 1-1 0v-3Zm-6 2 2 2a1 1 0 0 1-1 2 1 1 0 0 1-1-1v-3Zm-6 2 2 2a1 1 0 0 1 0 2 1 1 0 0 1-2-1v-3ZM108 89l79-31 1 3-78 30-2-2zM86 84a1 1 0 0 0 0-1 5 5 0 0 1-1 0 4 4 0 0 0 1 1ZM97 89a2 2 0 1 1-3-1 2 2 0 0 1 3 1ZM117 78a2 2 0 1 1-3-1 2 2 0 0 1 3 1ZM141 69a2 2 0 1 1-4 1 2 2 0 0 1 4-1ZM166 60a2 2 0 1 1-3-1 2 2 0 0 1 3 1Z" id="reuse-7"/><path class="cls-1" d="M179 52a12 12 0 0 1-6 3 12 12 0 0 1-6-2c-2-1-2-3-2-5s3-3 5-2a5 5 0 0 0-6-3c0-3-1-5-3-6a2 2 0 0 0-2 2 10 10 0 0 0-1-2h1a2 2 0 1 0-2-4 3 3 0 1 0-5 2 2 2 0 1 0 1 4h1a11 11 0 0 0 0 2 2 2 0 0 0-3 0c-1 1 0 4 2 6a5 5 0 0 0-3 6c1-2 4-2 5-1l1 5c-1 3-5 4-7 4a9 9 0 0 1-7-1c-2-1-3-4-3-6s3-3 5-2a5 5 0 0 0-5-3c0-3-1-7-4-7a3 3 0 0 0-2 1 11 11 0 0 0-1-1 3 3 0 1 0-1-5h-1a3 3 0 1 0-5 2 2 2 0 0 0-1 1 3 3 0 1 0 2 4 13 13 0 0 0 1 2 3 3 0 0 0-3 0c-1 2 0 5 2 8a5 5 0 0 0-2 6c1-3 4-3 5-2s2 4 2 6a9 9 0 0 1-5 6c-2 1-6 2-8 1-2 0-3-2-3-4s3-3 5-2a5 5 0 0 0-6-3c0-3-1-5-3-6a2 2 0 0 0-2 2l-1-2a2 2 0 1 0-1-4 3 3 0 0 0-1 0 3 3 0 0 0-4 2h-1a2 2 0 0 0 2 4 11 11 0 0 0 0 2 2 2 0 0 0-2 0c-1 1 0 4 2 6a5 5 0 0 0-3 6c1-2 3-2 5-1a6 6 0 0 1 2 5c0 3-1 5-5 6a11 11 0 0 1-3 1c-2 0-3-1-4-3v-1c0-2 0-4-2-4a1 1 0 0 0-1 0l-3-2-1 4a2 2 0 0 0-1 0v3a7 7 0 0 0-2-1h-1a1 1 0 0 0-1 1 4 4 0 0 0-1-1h-1a1 1 0 0 0-1 0 1 1 0 0 0 0 1 1 1 0 0 0 0 1 6 6 0 0 0 2 2 5 5 0 0 0-2 3c-1 6 6 10 14 8-5-1-10-3-9-6 0-2 3-3 6-3h12c5-2 8-5 8-7a17 17 0 0 0 1-5 9 9 0 0 0 1 1c6 2 11 0 14-1a14 14 0 0 0 7-7 14 14 0 0 0 2-5 14 14 0 0 0 4 3 14 14 0 0 0 10 0c3-1 9-3 11-8a9 9 0 0 0 1-2 36 36 0 0 0 6 3h10c3-2 6-6 5-11 0 1-1 4-4 6ZM83 83a6 6 0 0 1-2-2v-1h1a5 5 0 0 1 1 0 1 1 0 0 0 0 1 3 3 0 0 0 0 1 6 6 0 0 0 1 1 10 10 0 0 0-1 0Zm5-1a12 12 0 0 0-3 0 6 6 0 0 1-1-1v-1a6 6 0 0 1 3 1 6 6 0 0 1 1 1Zm0-1-1-3h2a7 7 0 0 1 1 1 8 8 0 0 1 2 2Zm3-2a8 8 0 0 0-2-2v-3l3 2a8 8 0 0 0-1 3Zm4 2h-2a2 2 0 0 1-1 0 7 7 0 0 1 0-2 7 7 0 0 1 0-3l1-1 2 4a7 7 0 0 1 0 2Zm12-28a1 1 0 1 1 0 2 1 1 0 0 1 0-2Zm-3-1a1 1 0 1 1-1 2 1 1 0 0 1 1-2Zm-1 5a1 1 0 0 1-2 0 1 1 0 0 1 1-2 1 1 0 1 1 1 2Zm5 9a3 3 0 0 0 0 1 4 4 0 0 0 0-1 6 6 0 0 0-4 0c-2-2-3-4-2-5h2a10 10 0 0 1 3 2 12 12 0 0 1 1 3Zm0-4v1h-1a11 11 0 0 0-2-3v-4h1a9 9 0 0 1 2 3 11 11 0 0 0 0 3Zm2 4a5 5 0 0 1-1 0 11 11 0 0 1 0-4 10 10 0 0 1 0-3c1-1 1-2 2-1 1 0 2 2 2 5a6 6 0 0 0-3 3Zm24-21 1-2c1 1 3 3 3 7a6 6 0 0 0-4 3 12 12 0 0 1-1-4 11 11 0 0 1 1-4Zm-3-6a1 1 0 1 1-1 1 1 1 0 0 1 1-1Zm-4-2a2 2 0 1 1-1 2 2 2 0 0 1 1-2Zm2 4a1 1 0 0 1 1 0v1a10 10 0 0 1 2 3 13 13 0 0 0 0 4v1l-1-1a12 12 0 0 0-3-2c-1-4 0-6 1-6Zm-3 2a1 1 0 1 1-1-2 1 1 0 1 1 1 2Zm1 10c-2-2-3-5-2-6l2 1a11 11 0 0 1 3 2 12 12 0 0 1 2 3l1 1h-1a6 6 0 0 0-5-1Zm31-19a1 1 0 1 1-1 2 1 1 0 0 1 1-2Zm-4-1a1 1 0 1 1-1 2 1 1 0 0 1 1-2Zm-1 5a1 1 0 0 1-1 0 1 1 0 1 1 1 0Zm6 9a5 5 0 0 1 0 1 6 6 0 0 0-1-1 6 6 0 0 0-4 0c-2-2-2-4-2-5h2a10 10 0 0 1 3 2 11 11 0 0 1 2 3Zm-1-3a11 11 0 0 0-3-3 9 9 0 0 1 0-3 1 1 0 0 0 0-1c1-1 2 0 4 3a11 11 0 0 0-1 3v1Zm2 3a11 11 0 0 1-1-4 10 10 0 0 1 1-3l1-1c1 0 2 2 2 5a6 6 0 0 0-3 3ZM262 62l-3 8 73 29 7-7Zm6 8a1 1 0 0 1-1 1 1 1 0 0 1-1-2l2-2v3Zm6 3a1 1 0 0 1-2 0 1 1 0 0 1 0-1l2-2v3Zm6 2a1 1 0 0 1-2 1 1 1 0 0 1 0-2l2-2v3Zm6 2a1 1 0 0 1-2 1 1 1 0 0 1-1-2l3-2v3Zm6 2a1 1 0 0 1-2 1 1 1 0 0 1-1-2l3-2a9 9 0 0 1 0 3Zm6 3a1 1 0 0 1-2 1 1 1 0 0 1-1-2l2-2 1 3Zm6 2a1 1 0 0 1-2 1 1 1 0 0 1-1-2l2-2 1 3Zm6 2a1 1 0 0 1-2 1 1 1 0 0 1-1-2l2-2a9 9 0 0 1 1 3Zm5 3a1 1 0 0 1-1 0 1 1 0 0 1-1-1l2-2v3Zm6 2a1 1 0 0 1-1 1 1 1 0 0 1-1-2l2-2v3Zm6 2a1 1 0 0 1-2 1 1 1 0 0 1 0-2l2-2v3ZM342 89l-79-31-1 3 78 30 2-2zM364 84a1 1 0 0 1 0-1 1 1 0 0 0 1 0 5 5 0 0 1-1 1ZM353 89a2 2 0 1 0 3-1 2 2 0 0 0-3 1ZM333 78a2 2 0 1 0 3-1 2 2 0 0 0-3 1ZM309 69a2 2 0 0 0 4 1 2 2 0 0 0-4-1ZM284 60a2 2 0 0 0 1 3 2 2 0 0 0 2-4 2 2 0 0 0-3 1Z" id="reuse-8"/><path class="cls-1" d="M267 46c-1 5 2 9 5 11h10a36 36 0 0 0 6-3 9 9 0 0 0 1 2c2 5 8 7 11 8a14 14 0 0 0 10 0 14 14 0 0 0 4-3 14 14 0 0 0 2 5 14 14 0 0 0 7 7c3 1 8 3 14 1a9 9 0 0 0 1-1 17 17 0 0 0 1 5c0 2 3 5 8 7h12c3 0 6 1 6 3 1 3-4 5-9 6 8 2 15-2 14-7v-1a5 5 0 0 0-2-3 6 6 0 0 0 2-2 1 1 0 0 0 0-1 1 1 0 0 0-1-1 1 1 0 0 0-1 0 4 4 0 0 0-1 0 1 1 0 0 0-1 0h-1a7 7 0 0 0-2 1v-3a2 2 0 0 0-1 0l-1-4-3 2a1 1 0 0 0-1-1c-2 1-3 3-3 5l1 1c-1 2-2 3-4 3a11 11 0 0 1-3-1c-4-2-5-3-5-6a6 6 0 0 1 2-5c1-1 4-1 5 1a5 5 0 0 0-3-6c2-2 3-5 2-6a2 2 0 0 0-2 0 10 10 0 0 0 0-2 2 2 0 1 0 1-4 3 3 0 1 0-4-2 3 3 0 0 0-1 0 2 2 0 1 0-1 4l-1 1a2 2 0 0 0-2-1c-2 0-3 3-3 6a5 5 0 0 0-6 3c2-1 4 0 5 2s-1 3-3 4-6 0-8-1a9 9 0 0 1-5-6c0-2 0-5 2-6s4-1 5 1a5 5 0 0 0-2-5c2-3 4-6 2-8a3 3 0 0 0-3 0 13 13 0 0 0 1-2 3 3 0 0 0 2-5 2 2 0 0 0-1 0 3 3 0 1 0-5-2h-1a3 3 0 1 0-1 5 13 13 0 0 0-1 1 3 3 0 0 0-2-1c-3 0-4 4-4 7a5 5 0 0 0-5 3c2-1 4 1 5 2s-1 5-3 6a9 9 0 0 1-7 1c-2 0-6-2-7-4s-1-4 1-5 4-1 5 1a5 5 0 0 0-3-6c2-2 3-5 2-6a2 2 0 0 0-3 0 11 11 0 0 0 1-2 2 2 0 1 0 1-4 3 3 0 1 0-5-2 2 2 0 1 0-2 4h1l-1 2a2 2 0 0 0-2-2c-2 1-3 3-3 6a5 5 0 0 0-6 3c2-1 4 1 5 2s0 4-2 5a12 12 0 0 1-6 2 12 12 0 0 1-6-3c-3-2-4-5-4-6Zm99 37a7 7 0 0 0 1-1 3 3 0 0 0 0-1 2 2 0 0 0 0-1 5 5 0 0 1 1 0h1v1a6 6 0 0 1-2 2 10 10 0 0 0-1-1Zm-4-1a6 6 0 0 1 1-1 6 6 0 0 1 3-1h1v1a1 1 0 0 1-1 0 5 5 0 0 1-1 1 12 12 0 0 0-3 0Zm-4-1a7 7 0 0 1 2-2 7 7 0 0 1 1-1h2l-1 3Zm1-2a8 8 0 0 0-1-3l3-2v3a8 8 0 0 0-2 2Zm-4 0 2-4 1 1a7 7 0 0 1 0 3 7 7 0 0 1 0 2h-3a7 7 0 0 1 0-2Zm-12-24a1 1 0 1 1 0-2 1 1 0 0 1 0 2Zm4-1a1 1 0 0 1-2 0 1 1 0 1 1 2 0Zm0 2a1 1 0 1 1 0 1 1 1 0 0 1 0-1Zm-5 10a11 11 0 0 1 2-3 10 10 0 0 1 2-2h2c1 1 0 3-2 5a6 6 0 0 0-4 0v1-1Zm0-7a9 9 0 0 1 2-3 1 1 0 0 1 1 0v4a11 11 0 0 0-2 3h-1v-1a12 12 0 0 0 0-3Zm-5 4c0-3 1-5 2-5l2 1a10 10 0 0 1 0 3 11 11 0 0 1 0 4 6 6 0 0 1-1 0 6 6 0 0 0-3-3Zm-20-14a13 13 0 0 1-1 4 6 6 0 0 0-3-3c0-4 1-6 2-7l1 2a11 11 0 0 1 1 4Zm3-9a1 1 0 1 1-1-1 1 1 0 0 1 1 1Zm4-1a2 2 0 1 1-3-1 2 2 0 1 1 3 1Zm-2 8a13 13 0 0 0-3 2 6 6 0 0 0-1 1v-1a13 13 0 0 0 0-4 10 10 0 0 1 2-3 1 1 0 0 0 0-1h1c1 0 2 2 1 6Zm2-5a1 1 0 1 1 0 1 1 1 0 0 1 0-1Zm-6 12h-1l1-1a13 13 0 0 1 2-3 11 11 0 0 1 3-2l2-1c1 1 0 4-2 6a6 6 0 0 0-5 1Zm-25-18a1 1 0 1 1-1-2 1 1 0 0 1 1 2Zm4-1a1 1 0 1 1-1-2 1 1 0 0 1 1 2Zm0 2a1 1 0 1 1 2 1 1 1 0 1 1-2-1Zm-6 10a11 11 0 0 1 2-3 10 10 0 0 1 3-2h2c0 1 0 3-2 5a6 6 0 0 0-4 0 6 6 0 0 0-1 1 7 7 0 0 1 0-1Zm1-4a11 11 0 0 0-1-3c2-3 3-4 4-3v1a9 9 0 0 1 0 3 11 11 0 0 0-3 3v-1Zm-5 1c0-3 1-5 2-5l1 1a9 9 0 0 1 1 3 11 11 0 0 1-1 4 6 6 0 0 0-3-3Z" id="reuse-9"/></defs><defs><style>.cls-1{fill:#fff}.cls-2{fill:#231815}</style></defs><g id="レイヤー_2" data-name="レイヤー 2"><g id="レイヤー_1-2" data-name="レイヤー 1"><use class="cls-1" xlink:href="#reuse-0"/><use class="cls-1" xlink:href="#reuse-1"/><use class="cls-1" xlink:href="#reuse-2"/><use class="cls-1" xlink:href="#reuse-3"/><use class="cls-1" xlink:href="#reuse-4"/><use class="cls-1" xlink:href="#reuse-5"/><use class="cls-1" xlink:href="#reuse-6"/><use class="cls-1" xlink:href="#reuse-7"/><use class="cls-1" xlink:href="#reuse-8"/><use class="cls-1" xlink:href="#reuse-9"/><use class="cls-2" xlink:href="#reuse-0"/><use class="cls-2" xlink:href="#reuse-1"/><use class="cls-2" xlink:href="#reuse-2"/><use class="cls-2" xlink:href="#reuse-3"/><use class="cls-2" xlink:href="#reuse-4"/><use class="cls-2" xlink:href="#reuse-5"/><use class="cls-2" xlink:href="#reuse-6"/><use class="cls-2" xlink:href="#reuse-7"/><use class="cls-2" xlink:href="#reuse-8"/><use class="cls-2" xlink:href="#reuse-9"/></g></g></svg>