<svg version="1.1" viewBox="0.0 50.0 500.0 400.0" fill="none" stroke="none" stroke-linecap="square" stroke-miterlimit="10" xmlns:xlink="http://www.w3.org/1999/xlink" xmlns="http://www.w3.org/2000/svg"><clipPath id="g378e6ffbb7b_0_0.0"><path d="m0 0l960.0 0l0 540.0l-960.0 0l0 -540.0z" clip-rule="nonzero"/></clipPath><g clip-path="url(#g378e6ffbb7b_0_0.0)"><path fill="#ffffff" d="m0 0l960.0 0l0 540.0l-960.0 0z" fill-rule="evenodd"/><path fill="#000000" fill-opacity="0.0" d="m889.4969 489.57657l57.606323 0l0 41.322845l-57.606323 0z" fill-rule="evenodd"/><path fill="#595959" d="m934.81415 504.6605l0 11.4374695l-1.453125 0l0 -9.6405945l-2.90625 1.0625l0 -1.296875l4.125 -1.5625l0.234375 0z" fill-rule="nonzero"/><path fill="#d9ead3" d="m133.08661 209.51968l0 0c0 -12.872147 10.434937 -23.307083 23.307098 -23.307083l0 0c6.1814117 0 12.109665 2.4555511 16.48059 6.8264923c4.370926 4.370926 6.8264923 10.299164 6.8264923 16.48059l0 0c0 12.872147 -10.434937 23.307083 -23.307083 23.307083l0 0c-12.872162 0 -23.307098 -10.434937 -23.307098 -23.307083z" fill-rule="evenodd"/><path stroke="#595959" stroke-width="1.0" stroke-linejoin="round" stroke-linecap="butt" d="m133.08661 209.51968l0 0c0 -12.872147 10.434937 -23.307083 23.307098 -23.307083l0 0c6.1814117 0 12.109665 2.4555511 16.48059 6.8264923c4.370926 4.370926 6.8264923 10.299164 6.8264923 16.48059l0 0c0 12.872147 -10.434937 23.307083 -23.307083 23.307083l0 0c-12.872162 0 -23.307098 -10.434937 -23.307098 -23.307083z" fill-rule="evenodd"/><path fill="#000000" d="m156.76169 204.34593l-4.390625 12.09375l-1.796875 0l5.046875 -13.265625l1.171875 0l-0.03125 1.171875zm3.671875 12.09375l-4.390625 -12.09375l-0.03125 -1.171875l1.15625 0l5.078125 13.265625l-1.8125 0zm-0.21875 -4.90625l0 1.4375l-7.453125 0l0 -1.4375l7.453125 0z" fill-rule="nonzero"/><path fill="#eeeeee" d="m133.08661 96.32021l0 0c0 -12.872154 10.434937 -23.30709 23.307098 -23.30709l0 0c6.1814117 0 12.109665 2.4555588 16.48059 6.8264847c4.370926 4.3709335 6.8264923 10.299179 6.8264923 16.480606l0 0c0 12.872147 -10.434937 23.307083 -23.307083 23.307083l0 0c-12.872162 0 -23.307098 -10.434937 -23.307098 -23.307083z" fill-rule="evenodd"/><path stroke="#595959" stroke-width="1.0" stroke-linejoin="round" stroke-linecap="butt" d="m133.08661 96.32021l0 0c0 -12.872154 10.434937 -23.30709 23.307098 -23.30709l0 0c6.1814117 0 12.109665 2.4555588 16.48059 6.8264847c4.370926 4.3709335 6.8264923 10.299179 6.8264923 16.480606l0 0c0 12.872147 -10.434937 23.307083 -23.307083 23.307083l0 0c-12.872162 0 -23.307098 -10.434937 -23.307098 -23.307083z" fill-rule="evenodd"/><path fill="#000000" d="m161.24252 101.802704l0 1.4375l-8.984375 0l0 -1.4375l8.984375 0zm-0.296875 -10.546875l-8.265625 11.984375l-1.078125 0l0 -1.3125l8.265625 -11.953125l1.078125 0l0 1.28125zm-0.734375 -1.28125l0 1.4375l-8.5 0l0 -1.4375l8.5 0z" fill-rule="nonzero"/><path fill="#d9ead3" d="m203.47507 288.11023l0 0c0 -12.872131 10.434937 -23.307068 23.307083 -23.307068l0 0c6.181427 0 12.10968 2.455536 16.480606 6.826477c4.370926 4.3709106 6.826477 10.299164 6.826477 16.48059l0 0c0 12.872162 -10.434937 23.307098 -23.307083 23.307098l0 0c-12.872147 0 -23.307083 -10.434937 -23.307083 -23.307098z" fill-rule="evenodd"/><path stroke="#595959" stroke-width="1.0" stroke-linejoin="round" stroke-linecap="butt" d="m203.47507 288.11023l0 0c0 -12.872131 10.434937 -23.307068 23.307083 -23.307068l0 0c6.181427 0 12.10968 2.455536 16.480606 6.826477c4.370926 4.3709106 6.826477 10.299164 6.826477 16.48059l0 0c0 12.872162 -10.434937 23.307098 -23.307083 23.307098l0 0c-12.872147 0 -23.307083 -10.434937 -23.307083 -23.307098z" fill-rule="evenodd"/><path fill="#000000" d="m227.23592 288.82712l-3.359375 0l-0.015625 -1.40625l3.046875 0q0.765625 0 1.328125 -0.25q0.5625 -0.265625 0.875 -0.734375q0.3125 -0.484375 0.3125 -1.15625q0 -0.71875 -0.28125 -1.171875q-0.28125 -0.46875 -0.84375 -0.6875q-0.5625 -0.21875 -1.4375 -0.21875l-2.59375 0l0 11.828125l-1.75 0l0 -13.265625l4.34375 0q1.015625 0 1.8125 0.203125q0.8125 0.203125 1.359375 0.640625q0.5625 0.4375 0.859375 1.109375q0.296875 0.65625 0.296875 1.578125q0 0.828125 -0.421875 1.484375q-0.421875 0.65625 -1.171875 1.078125q-0.734375 0.421875 -1.734375 0.546875l-0.625 0.421875zm-0.078125 6.203125l-3.96875 0l0.984375 -1.4375l2.984375 0q0.828125 0 1.421875 -0.28125q0.59375 -0.296875 0.890625 -0.828125q0.3125 -0.53125 0.3125 -1.265625q0 -0.734375 -0.265625 -1.265625q-0.25 -0.546875 -0.828125 -0.828125q-0.5625 -0.296875 -1.453125 -0.296875l-2.5 0l0.015625 -1.40625l3.421875 0l0.375 0.5q0.953125 0.09375 1.609375 0.546875q0.671875 0.453125 1.015625 1.171875q0.359375 0.703125 0.359375 1.5625q0 1.234375 -0.546875 2.09375q-0.53125 0.84375 -1.515625 1.296875q-0.984375 0.4375 -2.3125 0.4375z" fill-rule="nonzero"/><path fill="#d9ead3" d="m149.54855 377.9239l0 0c0 -12.872162 10.434937 -23.307098 23.307083 -23.307098l0 0c6.181427 0 12.10968 2.4555664 16.480606 6.8265076c4.370926 4.3709106 6.8264923 10.299164 6.8264923 16.48059l0 0c0 12.872131 -10.434937 23.307068 -23.307098 23.307068l0 0c-12.872147 0 -23.307083 -10.434937 -23.307083 -23.307068z" fill-rule="evenodd"/><path stroke="#595959" stroke-width="1.0" stroke-linejoin="round" stroke-linecap="butt" d="m149.54855 377.9239l0 0c0 -12.872162 10.434937 -23.307098 23.307083 -23.307098l0 0c6.181427 0 12.10968 2.4555664 16.480606 6.8265076c4.370926 4.3709106 6.8264923 10.299164 6.8264923 16.48059l0 0c0 12.872131 -10.434937 23.307068 -23.307098 23.307068l0 0c-12.872147 0 -23.307083 -10.434937 -23.307083 -23.307068z" fill-rule="evenodd"/><path fill="#000000" d="m176.33104 380.62512l1.75 0q-0.140625 1.265625 -0.71875 2.265625q-0.578125 0.984375 -1.65625 1.5625q-1.0625 0.578125 -2.65625 0.578125q-1.171875 0 -2.125 -0.4375q-0.9375 -0.4375 -1.625 -1.25q-0.6875 -0.8125 -1.0625 -1.9375q-0.359375 -1.140625 -0.359375 -2.53125l0 -1.3125q0 -1.40625 0.359375 -2.53125q0.375 -1.140625 1.0625 -1.953125q0.703125 -0.8125 1.6875 -1.25q0.984375 -0.4375 2.21875 -0.4375q1.5 0 2.53125 0.578125q1.046875 0.5625 1.625 1.5625q0.578125 0.984375 0.71875 2.296875l-1.75 0q-0.125 -0.921875 -0.46875 -1.59375q-0.34375 -0.671875 -0.984375 -1.03125q-0.640625 -0.359375 -1.671875 -0.359375q-0.890625 0 -1.5625 0.34375q-0.65625 0.328125 -1.109375 0.953125q-0.453125 0.609375 -0.6875 1.484375q-0.21875 0.859375 -0.21875 1.90625l0 1.34375q0 0.984375 0.203125 1.84375q0.203125 0.84375 0.625 1.5q0.421875 0.640625 1.0625 1.015625q0.65625 0.359375 1.53125 0.359375q1.125 0 1.78125 -0.34375q0.671875 -0.359375 1.015625 -1.015625q0.34375 -0.671875 0.484375 -1.609375z" fill-rule="nonzero"/><path fill="#d9ead3" d="m85.93438 296.83203l0 0c0 -12.872162 10.434944 -23.307098 23.30709 -23.307098l0 0c6.1814194 0 12.109673 2.4555664 16.480598 6.826477c4.3709335 4.370941 6.8264847 10.299194 6.8264847 16.480621l0 0c0 12.872131 -10.434937 23.307068 -23.307083 23.307068l0 0c-12.872147 0 -23.30709 -10.434937 -23.30709 -23.307068z" fill-rule="evenodd"/><path stroke="#595959" stroke-width="1.0" stroke-linejoin="round" stroke-linecap="butt" d="m85.93438 296.83203l0 0c0 -12.872162 10.434944 -23.307098 23.30709 -23.307098l0 0c6.1814194 0 12.109673 2.4555664 16.480598 6.826477c4.3709335 4.370941 6.8264847 10.299194 6.8264847 16.480621l0 0c0 12.872131 -10.434937 23.307068 -23.307083 23.307068l0 0c-12.872147 0 -23.30709 -10.434937 -23.30709 -23.307068z" fill-rule="evenodd"/><path fill="#000000" d="m108.24489 303.752l-2.765625 0l0.015625 -1.4375l2.75 0q1.421875 0 2.359375 -0.59375q0.953125 -0.59375 1.4375 -1.671875q0.484375 -1.078125 0.484375 -2.53125l0 -0.8125q0 -1.140625 -0.28125 -2.015625q-0.265625 -0.890625 -0.796875 -1.5q-0.53125 -0.625 -1.296875 -0.9375q-0.75 -0.328125 -1.734375 -0.328125l-2.984375 0l0 -1.4375l2.984375 0q1.296875 0 2.375 0.4375q1.078125 0.4375 1.84375 1.25q0.78125 0.8125 1.203125 1.96875q0.421875 1.140625 0.421875 2.59375l0 0.78125q0 1.4375 -0.421875 2.59375q-0.421875 1.15625 -1.203125 1.96875q-0.78125 0.8125 -1.890625 1.25q-1.109375 0.421875 -2.5 0.421875zm-1.828125 -13.265625l0 13.265625l-1.75 0l0 -13.265625l1.75 0z" fill-rule="nonzero"/><path fill="#eeeeee" d="m32.49344 391.4672l0 0c0 -12.872162 10.434937 -23.307098 23.307087 -23.307098l0 0c6.181423 0 12.109669 2.4555664 16.480595 6.8265076c4.3709335 4.3709106 6.8264923 10.299164 6.8264923 16.48059l0 0c0 12.872131 -10.434937 23.307098 -23.307087 23.307098l0 0c-12.87215 0 -23.307087 -10.434967 -23.307087 -23.307098z" fill-rule="evenodd"/><path stroke="#595959" stroke-width="1.0" stroke-linejoin="round" stroke-linecap="butt" d="m32.49344 391.4672l0 0c0 -12.872162 10.434937 -23.307098 23.307087 -23.307098l0 0c6.181423 0 12.109669 2.4555664 16.480595 6.8265076c4.3709335 4.3709106 6.8264923 10.299164 6.8264923 16.48059l0 0c0 12.872131 -10.434937 23.307098 -23.307087 23.307098l0 0c-12.87215 0 -23.307087 -10.434967 -23.307087 -23.307098z" fill-rule="evenodd"/><path fill="#000000" d="m60.46755 396.94968l0 1.4375l-7.03125 0l0 -1.4375l7.03125 0zm-6.671875 -11.828125l0 13.265625l-1.75 0l0 -13.265625l1.75 0zm5.734375 5.703125l0 1.4375l-6.09375 0l0 -1.4375l6.09375 0zm0.84375 -5.703125l0 1.4375l-6.9375 0l0 -1.4375l6.9375 0z" fill-rule="nonzero"/><path fill="#000000" fill-opacity="0.0" d="m172.8743 226.00029l37.417328 45.637802" fill-rule="evenodd"/><path stroke="#595959" stroke-width="1.0" stroke-linejoin="round" stroke-linecap="butt" d="m172.8743 226.00029l33.61319 40.99791" fill-rule="evenodd"/><path fill="#595959" stroke="#595959" stroke-width="1.0" stroke-linecap="butt" d="m205.21019 268.04544l4.1545563 2.4621277l-1.5999451 -4.55661z" fill-rule="evenodd"/><path fill="#000000" fill-opacity="0.0" d="m210.30156 304.59082l-20.97638 56.850403" fill-rule="evenodd"/><path stroke="#595959" stroke-width="1.0" stroke-linejoin="round" stroke-linecap="butt" d="m210.30154 304.59085l-18.899399 51.221313" fill-rule="evenodd"/><path fill="#595959" stroke="#595959" stroke-width="1.0" stroke-linecap="butt" d="m189.85254 355.24042l-0.021316528 4.8292847l3.1205444 -3.6857605z" fill-rule="evenodd"/><path fill="#000000" fill-opacity="0.0" d="m172.85564 354.6168l-16.472427 -121.79527" fill-rule="evenodd"/><path stroke="#595959" stroke-width="1.0" stroke-linejoin="round" stroke-linecap="butt" d="m172.85564 354.6168l-15.668274 -115.849396" fill-rule="evenodd"/><path fill="#595959" stroke="#595959" stroke-width="1.0" stroke-linecap="butt" d="m158.82419 238.546l-2.2450562 -4.275772l-1.028595 4.7185364z" fill-rule="evenodd"/><path fill="#000000" fill-opacity="0.0" d="m125.72207 313.31262l30.645668 48.125977" fill-rule="evenodd"/><path stroke="#595959" stroke-width="1.0" stroke-linejoin="round" stroke-linecap="butt" d="m125.72207 313.31262l27.42292 43.064972" fill-rule="evenodd"/><path fill="#595959" stroke="#595959" stroke-width="1.0" stroke-linecap="butt" d="m151.75175 357.26477l3.8307648 2.9407043l-1.0442963 -4.7150574z" fill-rule="evenodd"/><path fill="#000000" fill-opacity="0.0" d="m132.54855 296.83203l70.92914 -8.724426" fill-rule="evenodd"/><path stroke="#595959" stroke-width="1.0" stroke-linejoin="round" stroke-linecap="butt" d="m132.54855 296.83203l64.97403 -7.9919434" fill-rule="evenodd"/><path fill="#595959" stroke="#595959" stroke-width="1.0" stroke-linecap="butt" d="m197.72421 290.4795l4.3025055 -2.1934204l-4.7057953 -1.0853577z" fill-rule="evenodd"/><path fill="#000000" fill-opacity="0.0" d="m92.76087 313.31262l-36.94488 54.834656" fill-rule="evenodd"/><path stroke="#595959" stroke-width="1.0" stroke-linejoin="round" stroke-linecap="butt" d="m92.760864 313.31262l-33.592304 49.858673" fill-rule="evenodd"/><path fill="#595959" stroke="#595959" stroke-width="1.0" stroke-linecap="butt" d="m57.798725 362.24838l-1.1658821 4.686493l3.9055405 -2.8406677z" fill-rule="evenodd"/><path fill="#000000" fill-opacity="0.0" d="m156.3937 119.6273l0 66.58268" fill-rule="evenodd"/><path stroke="#595959" stroke-width="1.0" stroke-linejoin="round" stroke-linecap="butt" d="m156.3937 119.6273l0 60.58268" fill-rule="evenodd"/><path fill="#595959" stroke="#595959" stroke-width="1.0" stroke-linecap="butt" d="m154.74197 180.20998l1.6517334 4.538101l1.6517334 -4.538101z" fill-rule="evenodd"/><path fill="#eeeeee" d="m364.4462 88.614174l0 0c0 -12.872147 10.434937 -23.30709 23.307098 -23.30709l0 0c6.1813965 0 12.10965 2.4555664 16.48059 6.8264923c4.3709106 4.370926 6.826477 10.299171 6.826477 16.480598l0 0c0 12.872147 -10.434937 23.307083 -23.307068 23.307083l0 0c-12.872162 0 -23.307098 -10.434937 -23.307098 -23.307083z" fill-rule="evenodd"/><path stroke="#595959" stroke-width="1.0" stroke-linejoin="round" stroke-linecap="butt" d="m364.4462 88.614174l0 0c0 -12.872147 10.434937 -23.30709 23.307098 -23.30709l0 0c6.1813965 0 12.10965 2.4555664 16.48059 6.8264923c4.3709106 4.370926 6.826477 10.299171 6.826477 16.480598l0 0c0 12.872147 -10.434937 23.307083 -23.307068 23.307083l0 0c-12.872162 0 -23.307098 -10.434937 -23.307098 -23.307083z" fill-rule="evenodd"/><path fill="#000000" d="m392.6021 94.09667l0 1.4375l-8.984375 0l0 -1.4375l8.984375 0zm-0.296875 -10.546875l-8.265625 11.984375l-1.078125 0l0 -1.3125l8.265625 -11.953125l1.078125 0l0 1.28125zm-0.734375 -1.28125l0 1.4375l-8.5 0l0 -1.4375l8.5 0z" fill-rule="nonzero"/><path fill="#d9ead3" d="m358.2319 154.8189l0 0c0 -12.872147 10.434937 -23.307083 23.307098 -23.307083l0 0c6.181427 0 12.10968 2.4555664 16.48059 6.8264923c4.370941 4.370926 6.8265076 10.299164 6.8265076 16.48059l0 0c0 12.872147 -10.434937 23.307098 -23.307098 23.307098l0 0c-12.872162 0 -23.307098 -10.434952 -23.307098 -23.307098z" fill-rule="evenodd"/><path stroke="#595959" stroke-width="1.0" stroke-linejoin="round" stroke-linecap="butt" d="m358.2319 154.8189l0 0c0 -12.872147 10.434937 -23.307083 23.307098 -23.307083l0 0c6.181427 0 12.10968 2.4555664 16.48059 6.8264923c4.370941 4.370926 6.8265076 10.299164 6.8265076 16.48059l0 0c0 12.872147 -10.434937 23.307098 -23.307098 23.307098l0 0c-12.872162 0 -23.307098 -10.434952 -23.307098 -23.307098z" fill-rule="evenodd"/><path fill="#000000" d="m381.90698 149.64514l-4.390625 12.09375l-1.796875 0l5.046875 -13.265625l1.171875 0l-0.03125 1.171875zm3.671875 12.09375l-4.390625 -12.09375l-0.03125 -1.171875l1.15625 0l5.078125 13.265625l-1.8125 0zm-0.21875 -4.90625l0 1.4375l-7.453125 0l0 -1.4375l7.453125 0z" fill-rule="nonzero"/><path fill="#000000" fill-opacity="0.0" d="m387.7533 111.92126l-6.2047424 19.590553" fill-rule="evenodd"/><path stroke="#595959" stroke-width="1.0" stroke-linejoin="round" stroke-linecap="butt" d="m387.7533 111.92126l-4.393097 13.870598" fill-rule="evenodd"/><path fill="#595959" stroke="#595959" stroke-width="1.0" stroke-linecap="butt" d="m381.78555 125.29312l0.20440674 4.825012l2.9448547 -3.827568z" fill-rule="evenodd"/><path fill="#d9ead3" d="m352.01764 221.02362l0 0c0 -12.872147 10.434937 -23.307083 23.307098 -23.307083l0 0c6.1813965 0 12.10965 2.4555664 16.48059 6.8264923c4.3709106 4.370926 6.826477 10.299164 6.826477 16.48059l0 0c0 12.872147 -10.434937 23.307083 -23.307068 23.307083l0 0c-12.872162 0 -23.307098 -10.434937 -23.307098 -23.307083z" fill-rule="evenodd"/><path stroke="#595959" stroke-width="1.0" stroke-linejoin="round" stroke-linecap="butt" d="m352.01764 221.02362l0 0c0 -12.872147 10.434937 -23.307083 23.307098 -23.307083l0 0c6.1813965 0 12.10965 2.4555664 16.48059 6.8264923c4.3709106 4.370926 6.826477 10.299164 6.826477 16.48059l0 0c0 12.872147 -10.434937 23.307083 -23.307068 23.307083l0 0c-12.872162 0 -23.307098 -10.434937 -23.307098 -23.307083z" fill-rule="evenodd"/><path fill="#000000" d="m375.7785 221.7405l-3.359375 0l-0.015625 -1.40625l3.046875 0q0.765625 0 1.328125 -0.25q0.5625 -0.265625 0.875 -0.734375q0.3125 -0.484375 0.3125 -1.15625q0 -0.71875 -0.28125 -1.171875q-0.28125 -0.46875 -0.84375 -0.6875q-0.5625 -0.21875 -1.4375 -0.21875l-2.59375 0l0 11.828125l-1.75 0l0 -13.265625l4.34375 0q1.015625 0 1.8125 0.203125q0.8125 0.203125 1.359375 0.640625q0.5625 0.4375 0.859375 1.109375q0.296875 0.65625 0.296875 1.578125q0 0.828125 -0.421875 1.484375q-0.421875 0.65625 -1.171875 1.078125q-0.734375 0.421875 -1.734375 0.546875l-0.625 0.421875zm-0.078125 6.203125l-3.96875 0l0.984375 -1.4375l2.984375 0q0.828125 0 1.421875 -0.28125q0.59375 -0.296875 0.890625 -0.828125q0.3125 -0.53125 0.3125 -1.265625q0 -0.734375 -0.265625 -1.265625q-0.25 -0.546875 -0.828125 -0.828125q-0.5625 -0.296875 -1.453125 -0.296875l-2.5 0l0.015625 -1.40625l3.421875 0l0.375 0.5q0.953125 0.09375 1.609375 0.546875q0.671875 0.453125 1.015625 1.171875q0.359375 0.703125 0.359375 1.5625q0 1.234375 -0.546875 2.09375q-0.53125 0.84375 -1.515625 1.296875q-0.984375 0.4375 -2.3125 0.4375z" fill-rule="nonzero"/><path fill="#d9ead3" d="m345.80334 287.22833l0 0c0 -12.872131 10.434967 -23.307068 23.307098 -23.307068l0 0c6.181427 0 12.10968 2.4555664 16.48059 6.826477c4.370941 4.370941 6.8265076 10.299194 6.8265076 16.48059l0 0c0 12.872162 -10.434937 23.307098 -23.307098 23.307098l0 0c-12.872131 0 -23.307098 -10.434937 -23.307098 -23.307098z" fill-rule="evenodd"/><path stroke="#595959" stroke-width="1.0" stroke-linejoin="round" stroke-linecap="butt" d="m345.80334 287.22833l0 0c0 -12.872131 10.434967 -23.307068 23.307098 -23.307068l0 0c6.181427 0 12.10968 2.4555664 16.48059 6.826477c4.370941 4.370941 6.8265076 10.299194 6.8265076 16.48059l0 0c0 12.872162 -10.434937 23.307098 -23.307098 23.307098l0 0c-12.872131 0 -23.307098 -10.434937 -23.307098 -23.307098z" fill-rule="evenodd"/><path fill="#000000" d="m372.58585 289.9296l1.75 0q-0.140625 1.265625 -0.71875 2.265625q-0.578125 0.984375 -1.65625 1.5625q-1.0625 0.578125 -2.65625 0.578125q-1.171875 0 -2.125 -0.4375q-0.9375 -0.4375 -1.625 -1.25q-0.6875 -0.8125 -1.0625 -1.9375q-0.359375 -1.140625 -0.359375 -2.53125l0 -1.3125q0 -1.40625 0.359375 -2.53125q0.375 -1.140625 1.0625 -1.953125q0.703125 -0.8125 1.6875 -1.25q0.984375 -0.4375 2.21875 -0.4375q1.5 0 2.53125 0.578125q1.046875 0.5625 1.625 1.5625q0.578125 0.984375 0.71875 2.296875l-1.75 0q-0.125 -0.921875 -0.46875 -1.59375q-0.34375 -0.671875 -0.984375 -1.03125q-0.640625 -0.359375 -1.671875 -0.359375q-0.890625 0 -1.5625 0.34375q-0.65625 0.328125 -1.109375 0.953125q-0.453125 0.609375 -0.6875 1.484375q-0.21875 0.859375 -0.21875 1.90625l0 1.34375q0 0.984375 0.203125 1.84375q0.203125 0.84375 0.625 1.5q0.421875 0.640625 1.0625 1.015625q0.65625 0.359375 1.53125 0.359375q1.125 0 1.78125 -0.34375q0.671875 -0.359375 1.015625 -1.015625q0.34375 -0.671875 0.484375 -1.609375z" fill-rule="nonzero"/><path fill="#d9ead3" d="m339.58908 353.43307l0 0c0 -12.872162 10.434937 -23.307098 23.307098 -23.307098l0 0c6.181427 0 12.10965 2.4555664 16.48059 6.8265076c4.3709106 4.3709106 6.826477 10.299164 6.826477 16.48059l0 0c0 12.872131 -10.434937 23.307068 -23.307068 23.307068l0 0c-12.872162 0 -23.307098 -10.434937 -23.307098 -23.307068z" fill-rule="evenodd"/><path stroke="#595959" stroke-width="1.0" stroke-linejoin="round" stroke-linecap="butt" d="m339.58908 353.43307l0 0c0 -12.872162 10.434937 -23.307098 23.307098 -23.307098l0 0c6.181427 0 12.10965 2.4555664 16.48059 6.8265076c4.3709106 4.3709106 6.826477 10.299164 6.826477 16.48059l0 0c0 12.872131 -10.434937 23.307068 -23.307068 23.307068l0 0c-12.872162 0 -23.307098 -10.434937 -23.307098 -23.307068z" fill-rule="evenodd"/><path fill="#000000" d="m361.8996 360.35306l-2.765625 0l0.015625 -1.4375l2.75 0q1.421875 0 2.359375 -0.59375q0.953125 -0.59375 1.4375 -1.671875q0.484375 -1.078125 0.484375 -2.53125l0 -0.8125q0 -1.140625 -0.28125 -2.015625q-0.265625 -0.890625 -0.796875 -1.5q-0.53125 -0.625 -1.296875 -0.9375q-0.75 -0.328125 -1.734375 -0.328125l-2.984375 0l0 -1.4375l2.984375 0q1.296875 0 2.375 0.4375q1.078125 0.4375 1.84375 1.25q0.78125 0.8125 1.203125 1.96875q0.421875 1.140625 0.421875 2.59375l0 0.78125q0 1.4375 -0.421875 2.59375q-0.421875 1.15625 -1.203125 1.96875q-0.78125 0.8125 -1.890625 1.25q-1.109375 0.421875 -2.5 0.421875zm-1.828125 -13.265625l0 13.265625l-1.75 0l0 -13.265625l1.75 0z" fill-rule="nonzero"/><path fill="#eeeeee" d="m333.37482 419.6378l0 0c0 -12.872131 10.434937 -23.307068 23.307068 -23.307068l0 0c6.181427 0 12.10968 2.455536 16.48059 6.826477c4.370941 4.370941 6.8265076 10.299164 6.8265076 16.48059l0 0c0 12.872162 -10.434937 23.307098 -23.307098 23.307098l0 0c-12.872131 0 -23.307068 -10.434937 -23.307068 -23.307098z" fill-rule="evenodd"/><path stroke="#595959" stroke-width="1.0" stroke-linejoin="round" stroke-linecap="butt" d="m333.37482 419.6378l0 0c0 -12.872131 10.434937 -23.307068 23.307068 -23.307068l0 0c6.181427 0 12.10968 2.455536 16.48059 6.826477c4.370941 4.370941 6.8265076 10.299164 6.8265076 16.48059l0 0c0 12.872162 -10.434937 23.307098 -23.307098 23.307098l0 0c-12.872131 0 -23.307068 -10.434937 -23.307068 -23.307098z" fill-rule="evenodd"/><path fill="#000000" d="m361.3489 425.1203l0 1.4375l-7.03125 0l0 -1.4375l7.03125 0zm-6.671875 -11.828125l0 13.265625l-1.75 0l0 -13.265625l1.75 0zm5.734375 5.703125l0 1.4375l-6.09375 0l0 -1.4375l6.09375 0zm0.84375 -5.703125l0 1.4375l-6.9375 0l0 -1.4375l6.9375 0z" fill-rule="nonzero"/><path fill="#000000" fill-opacity="0.0" d="m381.539 178.12599l-6.204712 19.590546" fill-rule="evenodd"/><path stroke="#595959" stroke-width="1.0" stroke-linejoin="round" stroke-linecap="butt" d="m381.539 178.12599l-4.393097 13.87059" fill-rule="evenodd"/><path fill="#595959" stroke="#595959" stroke-width="1.0" stroke-linecap="butt" d="m375.57126 191.49785l0.20443726 4.825012l2.9448547 -3.8275757z" fill-rule="evenodd"/><path fill="#000000" fill-opacity="0.0" d="m375.32474 244.3307l-6.2047424 19.59056" fill-rule="evenodd"/><path stroke="#595959" stroke-width="1.0" stroke-linejoin="round" stroke-linecap="butt" d="m375.3247 244.3307l-4.3930664 13.87059" fill-rule="evenodd"/><path fill="#595959" stroke="#595959" stroke-width="1.0" stroke-linecap="butt" d="m369.357 257.70258l0.20440674 4.825012l2.9448547 -3.8275757z" fill-rule="evenodd"/><path fill="#000000" fill-opacity="0.0" d="m369.11044 310.53543l-6.204712 19.590546" fill-rule="evenodd"/><path stroke="#595959" stroke-width="1.0" stroke-linejoin="round" stroke-linecap="butt" d="m369.11044 310.53543l-4.393097 13.870605" fill-rule="evenodd"/><path fill="#595959" stroke="#595959" stroke-width="1.0" stroke-linecap="butt" d="m363.1427 323.9073l0.20440674 4.825012l2.9448853 -3.8275452z" fill-rule="evenodd"/><path fill="#000000" fill-opacity="0.0" d="m362.89618 376.74014l-6.2047424 19.590576" fill-rule="evenodd"/><path stroke="#595959" stroke-width="1.0" stroke-linejoin="round" stroke-linecap="butt" d="m362.89615 376.74014l-4.3930664 13.870575" fill-rule="evenodd"/><path fill="#595959" stroke="#595959" stroke-width="1.0" stroke-linecap="butt" d="m356.92844 390.11203l0.20440674 4.825012l2.9448547 -3.8275757z" fill-rule="evenodd"/><path fill="#000000" fill-opacity="0.0" d="m386.20325 353.43307c23.008606 0 44.462067 -33.102356 46.01718 -66.20474c1.5551453 -33.10234 -16.788116 -66.20471 -33.576233 -66.20471" fill-rule="evenodd"/><path stroke="#595959" stroke-width="1.0" stroke-linejoin="round" stroke-linecap="butt" stroke-dasharray="4.0,3.0" d="m386.20325 353.43307c23.008606 0 44.462067 -33.102356 46.01718 -66.20474c0.7775574 -16.551178 -3.419464 -33.10234 -9.909393 -45.51573c-3.2449646 -6.2066956 -7.0631714 -11.378937 -11.119354 -14.999512c-2.0281372 -1.8102875 -4.1157227 -3.2326508 -6.2209473 -4.2024536c-0.52630615 -0.2424469 -1.0537109 -0.456604 -1.581543 -0.6414795c-0.26394653 -0.092422485 -0.5279846 -0.17753601 -0.7920227 -0.255188c-0.13201904 -0.03883362 -0.2640686 -0.075805664 -0.39614868 -0.11088562l-0.15808105 -0.039764404" fill-rule="evenodd"/><path fill="#595959" stroke="#595959" stroke-width="1.0" stroke-linecap="butt" d="m402.04297 221.46332l1.259552 -0.9710083l-3.208496 0.7188721l2.9199524 1.5117035z" fill-rule="evenodd"/><path fill="#000000" fill-opacity="0.0" d="m392.41754 287.22833c24.272827 0 46.99057 -33.10234 48.545685 -66.20471c1.5551147 -33.102356 -18.052368 -66.20473 -36.104736 -66.20473" fill-rule="evenodd"/><path stroke="#595959" stroke-width="1.0" stroke-linejoin="round" stroke-linecap="butt" stroke-dasharray="4.0,3.0" d="m392.41754 287.22833c24.272827 0 46.99054 -33.10234 48.545685 -66.20471c0.7775574 -16.551178 -3.7355347 -33.102356 -10.699585 -45.515747c-3.4820251 -6.2066956 -7.5767517 -11.378937 -11.929291 -14.999512c-2.1762695 -1.8102875 -4.416931 -3.2326508 -6.6777344 -4.2024384c-0.565155 -0.24246216 -1.1315918 -0.45661926 -1.6986084 -0.6414795c-0.2835083 -0.092437744 -0.5671692 -0.17755127 -0.8508911 -0.25520325c-0.14181519 -0.03883362 -0.28372192 -0.075805664 -0.42556763 -0.11088562l-0.41732788 -0.09768677" fill-rule="evenodd"/><path fill="#595959" stroke="#595959" stroke-width="1.0" stroke-linecap="butt" d="m408.26422 155.20067l1.2428589 -0.9923096l-3.1958008 0.7733917l2.9452515 1.4617767z" fill-rule="evenodd"/></g></svg>
